<svg width="648" height="257" viewBox="0 0 648 257" fill="none" xmlns="http://www.w3.org/2000/svg">
<path d="M561.401 251.247V251.747H561.901H600.865H601.365V251.247V199.093H646.499H646.999V198.593V163.139V162.639H646.499H601.365V5.52734V5.02734H600.865H558.04H557.776L557.627 5.24523L447.755 166.016L447.668 166.144V166.298V198.593V199.093H448.168H561.401V251.247ZM561.401 61.2075V162.639H492.29L561.401 61.2075Z" stroke="#1A2767"/>
<path d="M271.822 239.715L271.826 239.718C286.892 250.547 304.079 255.96 323.368 255.96C343.123 255.96 360.429 250.548 375.264 239.716L375.265 239.715C390.32 228.659 402.073 213.61 410.529 194.584C419.221 175.32 423.56 153.251 423.56 128.388C423.56 103.525 419.221 81.572 410.528 62.5408C402.073 43.2832 390.321 28.2323 375.263 17.4092C360.197 6.34535 342.892 0.81543 323.368 0.81543C303.844 0.81543 286.539 6.34574 271.472 17.4103C256.649 28.2335 244.897 43.2837 236.209 62.5397L236.207 62.5422C227.749 81.5729 223.527 103.525 223.527 128.388C223.527 153.25 227.749 175.318 236.206 194.582L236.21 194.589C244.899 213.612 256.768 228.66 271.822 239.715ZM353.936 206.636L353.931 206.64C345.126 214.286 335.062 218.102 323.719 218.102C312.14 218.102 301.841 214.285 292.803 206.638C283.988 198.981 277.01 188.411 271.885 174.901C266.995 161.393 264.545 145.892 264.545 128.388C264.545 110.649 266.995 95.0302 271.885 81.5235C277.011 68.0117 283.989 57.4403 292.806 49.7838C301.608 42.1396 311.789 38.3223 323.368 38.3223C334.948 38.3223 345.128 42.1396 353.931 49.7838L353.936 49.7879C362.981 57.442 369.958 68.1258 374.849 81.8685L374.853 81.8781C379.976 95.3841 382.543 110.884 382.543 128.388C382.543 145.891 379.976 161.391 374.853 174.897L374.85 174.904C369.959 188.412 362.983 198.981 353.936 206.636Z" stroke="#1A2767"/>
<path d="M114.733 251.247V251.747H115.233H154.197H154.697V251.247V199.093H199.831H200.331V198.593V163.139V162.639H199.831H154.697V5.52734V5.02734H154.197H111.372H111.108L110.959 5.24523L1.08719 166.016L1 166.144V166.298V198.593V199.093H1.5H114.733V251.247ZM114.733 61.2075V162.639H45.6221L114.733 61.2075Z" stroke="#1A2767"/>
</svg>
