<?xml version="1.0" encoding="utf-8"?>
<!-- Generator: Adobe Illustrator 24.1.3, SVG Export Plug-In . SVG Version: 6.00 Build 0)  -->
<svg version="1.1" id="Layer_1" xmlns="http://www.w3.org/2000/svg" xmlns:xlink="http://www.w3.org/1999/xlink" x="0px" y="0px"
	 viewBox="0 0 311 870" style="enable-background:new 0 0 311 870;" xml:space="preserve">
<style type="text/css">
	.st0{fill:none;stroke:#1A2767;}
	.st1{fill:none;stroke:#1A2767;stroke-width:1.5;}
</style>
<path class="st0" d="M228,870V388.5 M228,388.5h-9.6V357h171.2v31.5h-12.1 M228,388.5h149.5 M377.4,388.5V865"/>
<path class="st0" d="M272.7,388.3V869"/>
<path class="st0" d="M228.2,443.1H112.7V870"/>
<path class="st0" d="M228.2,422.5H101v20.5h18.6"/>
<path class="st0" d="M149,869V442"/>
<path class="st0" d="M192,869V442"/>
<path class="st1" d="M33.2,275.1H1.4c0.4-8.4,7.3-15.1,15.9-15.1C25.8,260,32.8,266.7,33.2,275.1z"/>
<path class="st1" d="M201.6,165.9c2.7,0.9,8.4,4.1,8.9,9.6c0.5-4.4,5.7-8.2,8.2-9.6"/>
<path class="st1" d="M201.6,165.9c2.7,0.9,8.4,4.1,8.9,9.6c0.5-4.4,5.7-8.2,8.2-9.6"/>
<path class="st1" d="M172.8,153.6c2.7,0.9,8.4,4.1,8.9,9.6c0.5-4.4,5.7-8.2,8.2-9.6"/>
<path class="st0" d="M701.9,77.1h-65.5c2.9-24,26.4-27.4,39.6-11.2C691.7,55.6,701.9,67.8,701.9,77.1z"/>
</svg>
