<?xml version="1.0" encoding="utf-8"?>
<!-- Generator: Adobe Illustrator 24.1.3, SVG Export Plug-In . SVG Version: 6.00 Build 0)  -->
<svg version="1.1" id="Layer_1" xmlns="http://www.w3.org/2000/svg" xmlns:xlink="http://www.w3.org/1999/xlink" x="0px" y="0px"
	 viewBox="0 0 336 866" style="enable-background:new 0 0 336 866;" xml:space="preserve">
<style type="text/css">
	.st0{fill:none;stroke:#1A2767;}
	.st1{fill:none;stroke:#1A2767;stroke-width:1.5;}
	.st2{fill:none;stroke:#1A2767;stroke-width:1.3;}
</style>
<path class="st0" d="M95.3,499.6h120.8 M216.2,499.6V866 M216.2,499.6h13.7"/>
<path class="st0" d="M94.4,478.5h135v20.5"/>
<path class="st0" d="M178,500v366"/>
<path class="st0" d="M136,500v262.6V866"/>
<path class="st0" d="M-23,864.6l39-439.9 M16,424.7l17.3,441.1 M16,424.7h74.8 M67.8,865.9l23-441.1 M90.8,424.7l32.9,441.1"/>
<path class="st0" d="M25.7,424.7v-7.3h54.7v7.3"/>
<path class="st0" d="M34.9,417.3v-7.4h37.2v7.4"/>
<path class="st0" d="M54.5,369l13.4,40.9H40L54.5,369z"/>
<path class="st1" d="M318.3,263.7c2.7,0.9,8.4,4.1,8.9,9.6c0.5-4.4,5.7-8.2,8.2-9.6"/>
<path class="st1" d="M318.3,263.7c2.7,0.9,8.4,4.1,8.9,9.6c0.5-4.4,5.7-8.2,8.2-9.6"/>
<path class="st1" d="M289.5,251.3c2.7,0.9,8.4,4.1,8.9,9.6c0.5-4.4,5.7-8.2,8.2-9.6"/>
<path class="st0" d="M175.6,150.9h-54.3c0-3.6,2.1-11.3,10.3-13.7c7.3-2.1,13.2,2.4,14.7,5.4c1.5-2.6,5.9-9.3,16.1-7.3
	C171.1,136.9,174.4,145.7,175.6,150.9z"/>
<path class="st2" d="M239,16.9H207c0.3-8.5,7.4-15.3,16-15.3C231.6,1.6,238.6,8.4,239,16.9z"/>
</svg>
