<?xml version="1.0" encoding="utf-8"?>
<!-- Generator: Adobe Illustrator 24.1.3, SVG Export Plug-In . SVG Version: 6.00 Build 0)  -->
<svg version="1.1" id="Layer_1" xmlns="http://www.w3.org/2000/svg" xmlns:xlink="http://www.w3.org/1999/xlink" x="0px" y="0px"
	 viewBox="0 0 1800 607" style="enable-background:new 0 0 1800 607;" xml:space="preserve">
<style type="text/css">
	.st0{fill:none;stroke:#000000;stroke-width:1.3;}
	.st1{fill:none;stroke:#343434;stroke-width:1.5;}
	.st2{fill:#FFFFFF;}
	.st3{fill:#FFFFFF;stroke:#000000;stroke-width:1.52;stroke-linecap:round;}
	.st4{fill:none;stroke:#000000;stroke-width:1.52;stroke-linecap:round;}
	.st5{fill:none;stroke:#FFFFFF;stroke-width:3.52;stroke-linecap:round;}
	.st6{fill:none;stroke:#727272;stroke-width:1.52;stroke-linecap:round;}
	.st7{fill:#FFFFFF;stroke:#727272;stroke-width:1.52;}
	.st8{fill:none;stroke:#000000;stroke-width:1.52;}
	.st9{fill:#CED0F8;stroke:#000000;stroke-width:1.52;stroke-linecap:round;}
	.st10{fill:none;stroke:#727272;stroke-width:1.3;stroke-linecap:round;}
	.st11{fill:none;stroke:#000000;stroke-width:1.4;stroke-linecap:round;}
	.st12{fill:#CED0F8;stroke:#929293;stroke-width:1.52;}
	.st13{fill:none;stroke:#FFFFFF;stroke-width:2.52;stroke-linecap:square;}
	.st14{fill:#FFFFFF;stroke:#000000;stroke-width:1.52;}
	.st15{fill-rule:evenodd;clip-rule:evenodd;fill:#FFFFFF;stroke:#1C1C1C;stroke-width:1.52;}
	.st16{fill:none;stroke:#727272;stroke-width:1.5;}
	.st17{fill:none;stroke:#FFFFFF;stroke-width:5;}
	.st18{fill:none;stroke:#000000;stroke-width:1.5;}
	.st19{fill:none;stroke:#929293;stroke-width:1.3;}
	.st20{fill:url(#SVGID_1_);}
	.st21{opacity:0.5845;}
	.st22{fill-rule:evenodd;clip-rule:evenodd;fill:#FFF0EF;}
	.st23{fill:none;stroke:#B8B8B8;stroke-width:1.5;}
	.st24{fill:none;stroke:#B8B8B8;}
	.st25{fill:none;stroke:#B8B8B8;stroke-width:1.3;}
</style>
<path class="st0" d="M1807,604.9H-5"/>
<path class="st1" d="M993.6,605.2c-70.2-37.5-209.5-122.9-248.6-122.9c-39.1,0-72,35.4-94.1,52.6L612,564.3"/>
<path class="st1" d="M1133.2,556c-60.9-36.9-127.2-73.8-158.9-73.8c-28.2,0-69.5,30.4-98.8,56.1"/>
<path class="st2" d="M628.3,469.8c-17.8,9.1-12.5,24.6-7.6,31.1c-12.1,7-10.8,29.2-1.3,38.1c8.6,8,29.2,15.2,43.2,0.6
	c6.4,7,20.3,8.3,28.6,1.9c8.3-6.4,12.1-26.7-8.3-32.4c14-10.2,12.7-26.7,11.4-31.8s-7.6-24.8-35.6-18.4
	c5.1-23.5-15.2-31.1-28.6-24.8C616.9,440.6,613.7,459.7,628.3,469.8z"/>
<path class="st3" d="M630,470.2c-17.5,9-12.3,24.1-7.5,30.6c-11.9,6.9-10.6,28.7-1.2,37.5c8.4,7.9,28.7,15,42.5,0.6
	c6.2,6.9,20,8.1,28.1,1.9c8.1-6.2,11.9-26.2-8.1-31.9c13.7-10,12.5-26.2,11.2-31.2c-1.2-5-7.5-24.4-35-18.1
	c5-23.1-15-30.6-28.1-24.4C618.8,441.5,615.7,460.2,630,470.2z"/>
<path class="st4" d="M650,480.8c7.7,21,21.7,74.9,16.2,122.4"/>
<path class="st4" d="M668.1,500.2l-6.9,18.7"/>
<path class="st4" d="M643.1,490.8l12.5,8.1"/>
<path class="st2" d="M470.3,436l-164.2,1l-1,167.2h167.2L470.3,436z"/>
<path class="st2" d="M583.4,512.7H395.1v92h188.3V512.7z"/>
<path class="st5" d="M488,437H290.4l97.4-54.6L488,437z"/>
<path class="st6" d="M485.9,436.9H294.4l95.5-52.5L485.9,436.9z"/>
<circle class="st7" cx="388.7" cy="414.9" r="13"/>
<rect x="320.6" y="449.1" class="st8" width="58.5" height="37.8"/>
<rect x="398.3" y="449.1" class="st8" width="58.5" height="37.8"/>
<path class="st4" d="M308.1,436.5v167.2"/>
<path class="st4" d="M468.9,436.5v63.4"/>
<path class="st3" d="M600.2,499.5H376.9v12.8h223.3V499.5z"/>
<path class="st9" d="M460.5,523.5h-46.2v81.6h46.2V523.5z"/>
<circle cx="452.1" cy="562.9" r="2.5"/>
<path class="st4" d="M395.6,512.2v92.5"/>
<rect x="480" y="523.8" class="st8" width="82.1" height="61.4"/>
<rect x="1388" y="486.7" class="st2" width="91.5" height="90.5"/>
<rect x="1392.7" y="499.2" class="st8" width="77.2" height="61.4"/>
<rect x="321.6" y="521.9" class="st8" width="57.5" height="63.4"/>
<path class="st4" d="M583.4,512.2v60"/>
<path class="st2" d="M603.1,563.4c-14.1,0-25.6,11.4-25.6,25.5c0,5.9,2,11.3,5.4,15.6l40.8-0.6c3.1-4.2,4.9-9.4,4.9-15.1
	C628.7,574.8,617.2,563.4,603.1,563.4z"/>
<path class="st4" d="M582.9,604.5c-3.4-4.3-5.4-9.7-5.4-15.6c0-14.1,11.4-25.5,25.6-25.5c14.1,0,25.6,11.4,25.6,25.5
	c0,5.6-1.8,10.8-4.9,15.1"/>
<path class="st4" d="M603.1,575.2v29.5"/>
<path class="st4" d="M603.1,589l6.9-7.9"/>
<path class="st2" d="M1373.7,472.9h-215.9v131.3h223.8v-10.3h-7.9V472.9z"/>
<path class="st10" d="M1147,484.2h11v-11.3h215.3v11.3h13.7v-9l-43.3-75.6h-154.5l-42.2,75.6V484.2z"/>
<path class="st11" d="M1161.7,594.9h211.5v-122h-215.4v89.5"/>
<path class="st3" d="M1210.9,447.3v39.9h43.3v-39.9l-21.1-21.1L1210.9,447.3z"/>
<path class="st4" d="M1232.8,427.8V487 M1252.6,447.7h-40.7"/>
<rect x="1176.3" y="501" class="st8" width="111.6" height="80.8"/>
<path class="st4" d="M1232,501.1v80"/>
<path class="st4" d="M1177.5,542h109.8"/>
<path class="st4" d="M1361.4,499.9h-51.2v94.9h51.2V499.9z"/>
<path class="st9" d="M1322.1,531.4v-20.7h28.5v20.7H1322.1z"/>
<circle cx="1348.4" cy="553.4" r="2.4"/>
<path class="st4" d="M1373.2,594.9h8v10"/>
<path class="st8" d="M1153.2,604.7c6.9-5,11.3-13.1,11.3-22.2c0-15.2-12.3-27.4-27.4-27.4c-15.2,0-27.4,12.3-27.4,27.4
	c0,9.1,4.5,17.2,11.3,22.2"/>
<path class="st8" d="M1137.4,571.2v33.6"/>
<path class="st8" d="M1137.4,586.6l7.5-9.3"/>
<path class="st3" d="M1083.3,471.7c16.7,8.1,12.6,23.3,8.5,30c11.3,6.2,11.3,28,3.1,37.1c-7.4,8.2-25.8,16.2-39.3,2.7
	c-5.4,7.1-18.1,9-25.9,3.2c-7.8-5.8-12.3-25.4,5.9-32c-13.2-9.2-12.9-25.4-12-30.4c0.9-5,5.7-24.5,31.5-19.6
	c-5.8-22.7,12.3-31.1,24.8-25.5C1092.2,442.7,1096.1,461.1,1083.3,471.7z"/>
<path class="st4" d="M1065.3,483.2c-6.1,21.2-16.3,75.4-8.7,122.1"/>
<path class="st4" d="M1049.5,503.2l7.3,18.2"/>
<path class="st4" d="M1072.2,492.7l-11.2,8.7"/>
<path class="st3" d="M1541.6,371.3v233.9h52.8v-87h60.5v87h53.7V371.3H1541.6z"/>
<circle class="st12" cx="1625.2" cy="325.2" r="19.2"/>
<rect x="1561.8" y="392.9" class="st8" width="53.4" height="83.6"/>
<rect x="1635.6" y="392.9" class="st8" width="53.4" height="83.6"/>
<path class="st13" d="M1654.9,603.2v-85.6h-60.5v85.6"/>
<path class="st4" d="M1654.4,518.4h-59.3v86.8h59.3V518.4z"/>
<circle cx="1645.4" cy="563.4" r="2.4"/>
<path class="st4" d="M1576.7,507.8h96.1"/>
<path class="st4" d="M1534.5,496.2h180.3"/>
<path class="st14" d="M1754.2,579.6c0-17.6-14.3-31.9-31.9-31.9c-17.6,0-31.9,14.3-31.9,31.9c0,10.5,5.1,19.9,13,25.7h37.9
	C1749.2,599.5,1754.2,590.2,1754.2,579.6z"/>
<path class="st4" d="M1722.8,564.9v40"/>
<path class="st4" d="M1722.8,583.3l10.5-13"/>
<path class="st4" d="M1722.3,596.3l-9-10.9"/>
<path class="st3" d="M250.5,346.5H97.6v258.7h45.2v-88.5h60v88.5h47.7V346.5z"/>
<path class="st15" d="M84.8,338.5h178.7v8H84.8V338.5z"/>
<path class="st12" d="M151.1,316.1c0-12.1,9.8-22,22-22s22,9.8,22,22v3.1h-43.9V316.1z"/>
<rect x="187.8" y="361.5" class="st8" width="42.9" height="38.8"/>
<rect x="187.8" y="419.1" class="st8" width="42.9" height="38.8"/>
<rect x="120" y="361" class="st8" width="42.9" height="38.8"/>
<rect x="121" y="419.1" class="st8" width="42.9" height="38.8"/>
<path class="st4" d="M83.8,481.3h180.3"/>
<path class="st4" d="M113.3,499h119"/>
<circle cx="193.3" cy="562.9" r="2.4"/>
<path class="st14" d="M108,579.6c0-17.6-14.3-31.9-31.9-31.9c-17.6,0-31.9,14.3-31.9,31.9c0,10.5,5.1,19.9,13,25.7h37.9
	C102.9,599.5,108,590.1,108,579.6z"/>
<path class="st8" d="M108,579.6c0-17.6-14.3-31.9-31.9-31.9c-17.6,0-31.9,14.3-31.9,31.9c0,10.5,5.1,19.9,13,25.7h37.9
	C102.9,599.5,108,590.1,108,579.6z"/>
<path class="st4" d="M76.5,564.8v40"/>
<path class="st4" d="M76.5,584.2l10.5-13"/>
<path class="st4" d="M76.1,597.2l-9-10.9"/>
<path class="st2" d="M1507,428.1h-146.1l17.7,29.5H1507V428.1z"/>
<path class="st16" d="M1361.9,430.1H1507v25.6h-130.3"/>
<path class="st17" d="M1488.3,456.7v147.5"/>
<path class="st18" d="M1488.3,456.7v147.5"/>
<path class="st19" d="M84.8,338.2l90-85.1l88.5,85.1"/>
<path class="st19" d="M1541.5,371.1l83-92.6l84,92.6"/>
<linearGradient id="SVGID_1_" gradientUnits="userSpaceOnUse" x1="218.047" y1="-80.2761" x2="218.047" y2="-453.2761" gradientTransform="matrix(1 0 0 -1 0 608)">
	<stop  offset="0" style="stop-color:#FFFFFF"/>
	<stop  offset="0.5764" style="stop-color:#FFFFFF;stop-opacity:0.69"/>
	<stop  offset="1" style="stop-color:#FFFFFF;stop-opacity:0.19"/>
</linearGradient>
<rect x="-682" y="688.3" class="st20" width="1800" height="373"/>
<g class="st21">
	<path class="st22" d="M1269.8,227.9h43v-2h-43V227.9z"/>
	<path class="st22" d="M1668.9,55.8h6.8v-2h-6.8V55.8z"/>
	<path class="st23" d="M394.8,267.4c2.7,0.9,8.4,4.1,8.9,9.6c0.5-4.4,5.7-8.2,8.2-9.6"/>
	<path class="st23" d="M394.8,267.4c2.7,0.9,8.4,4.1,8.9,9.6c0.5-4.4,5.7-8.2,8.2-9.6"/>
	<path class="st23" d="M366,255c2.7,0.9,8.4,4.1,8.9,9.6c0.5-4.4,5.7-8.2,8.2-9.6"/>
	<path class="st24" d="M168.3,154H114c0-3.6,2.1-11.3,10.3-13.7c7.3-2.1,13.2,2.4,14.7,5.4c1.5-2.6,5.9-9.3,16.1-7.3
		C163.8,140,167.1,148.8,168.3,154z"/>
	<path class="st23" d="M1435.5,270.9h-31.7c0.4-8.4,7.3-15.1,15.9-15.1S1435.1,262.5,1435.5,270.9z"/>
	<path class="st25" d="M250,19.9H218c0.3-8.5,7.4-15.3,16-15.3C242.6,4.6,249.6,11.4,250,19.9z"/>
	<path class="st23" d="M1701.7,165.9c2.7,0.9,8.4,4.1,8.9,9.6c0.6-4.4,5.7-8.2,8.2-9.6"/>
	<path class="st23" d="M1701.7,165.9c2.7,0.9,8.4,4.1,8.9,9.6c0.6-4.4,5.7-8.2,8.2-9.6"/>
	<path class="st23" d="M1672.8,153.6c2.7,0.9,8.4,4.1,8.9,9.6c0.6-4.4,5.7-8.2,8.2-9.6"/>
	<path class="st24" d="M1608.3,22.2h-65.5c2.9-24,26.4-27.4,39.6-11.2C1598,0.6,1608.3,12.9,1608.3,22.2z"/>
</g>
</svg>
