<svg id="Layer_1" data-name="Layer 1" xmlns="http://www.w3.org/2000/svg" viewBox="0 0 1946.94 1101.91"><defs><style>.cls-1,.cls-2,.cls-3{fill:none;}.cls-1,.cls-2{stroke:#1a2767;}.cls-2,.cls-3{stroke-width:1.5px;}.cls-3{stroke:#ff6625;}</style></defs><path class="cls-1" d="M1736,1237.79V503.51m0,0h-11.88V455.42h212.32v48.09h-15m-185.39,0h185.39m0,0v726.65" transform="translate(9.97 -139.09)"/><path class="cls-1" d="M1791.47,503.15v733.11" transform="translate(9.97 -139.09)"/><path class="cls-1" d="M1736.27,586.69H1593.1v651.1" transform="translate(9.97 -139.09)"/><path class="cls-1" d="M1736.27,555.36H1578.54v31.33h23" transform="translate(9.97 -139.09)"/><path class="cls-1" d="M1638.08,1236.26V585.05" transform="translate(9.97 -139.09)"/><path class="cls-1" d="M1691.42,1236.26V585.05" transform="translate(9.97 -139.09)"/><path class="cls-2" d="M1486.64,353h-38.77a19.41,19.41,0,0,1,38.77,0Z" transform="translate(9.97 -139.09)"/><path class="cls-3" d="M1692.58,219.1c3.35,1.11,10.23,5,10.9,11.74.67-5.37,7-10.07,10.06-11.74" transform="translate(9.97 -139.09)"/><path class="cls-2" d="M1692.58,219.1c3.35,1.11,10.23,5,10.9,11.74.67-5.37,7-10.07,10.06-11.74" transform="translate(9.97 -139.09)"/><path class="cls-2" d="M1657.35,198c3.36,1.12,10.23,5,10.9,11.74.68-5.37,7-10.06,10.07-11.74" transform="translate(9.97 -139.09)"/><path class="cls-1" d="M145.35,651.49H303.48m0,0V1241m0-589.51h17.91" transform="translate(9.97 -139.09)"/><path class="cls-1" d="M144.12,617.65H320.77V650.7" transform="translate(9.97 -139.09)"/><path class="cls-1" d="M253.55,652.16V1241" transform="translate(9.97 -139.09)"/><path class="cls-1" d="M198.59,652.16V1241" transform="translate(9.97 -139.09)"/><path class="cls-1" d="M-9.47,1238.77l51-707.67m0,0L64.1,1240.82M41.51,531.1h97.9m-30.12,709.72L139.41,531.1m0,0,43.11,709.72" transform="translate(9.97 -139.09)"/><path class="cls-1" d="M54.24,531.1V519.33h71.53V531.1" transform="translate(9.97 -139.09)"/><path class="cls-1" d="M66.24,519.15v-12h48.67v12" transform="translate(9.97 -139.09)"/><path class="cls-1" d="M92,441.4l17.55,65.79H73Z" transform="translate(9.97 -139.09)"/><path class="cls-3" d="M444.88,305.6c3.54,1.18,10.8,5.31,11.5,12.39.71-5.66,7.38-10.62,10.62-12.39" transform="translate(9.97 -139.09)"/><path class="cls-2" d="M444.88,305.6c3.54,1.18,10.8,5.31,11.5,12.39.71-5.66,7.38-10.62,10.62-12.39" transform="translate(9.97 -139.09)"/><path class="cls-2" d="M407.72,289.68c3.54,1.18,10.8,5.31,11.5,12.38.71-5.66,7.38-10.61,10.62-12.38" transform="translate(9.97 -139.09)"/><path class="cls-1" d="M260.79,160.23h-70c0-4.63,2.65-14.63,13.24-17.66,9.46-2.7,17,3.15,18.92,6.94,1.89-3.37,7.57-12,20.81-9.46C255,142.18,259.32,153.5,260.79,160.23Z" transform="translate(9.97 -139.09)"/></svg>