<?xml version="1.0" encoding="utf-8"?>
<!-- Generator: Adobe Illustrator 24.1.3, SVG Export Plug-In . SVG Version: 6.00 Build 0)  -->
<svg version="1.1" id="Layer_1" xmlns="http://www.w3.org/2000/svg" xmlns:xlink="http://www.w3.org/1999/xlink" x="0px" y="0px"
	 viewBox="0 0 1800 778" style="enable-background:new 0 0 1800 778;" xml:space="preserve">
<style type="text/css">
	.st0{fill:none;stroke:#1A2767;}
	.st1{fill:none;stroke:#000000;stroke-width:1.5;stroke-linecap:round;}
	.st2{fill:none;}
	.st3{opacity:0.58;}
	.st4{fill-rule:evenodd;clip-rule:evenodd;fill:#FFF0EF;}
	.st5{fill:none;stroke:#FF6625;stroke-width:1.5;}
	.st6{fill:none;stroke:#1A2767;stroke-width:1.5;}
	.st7{fill:none;stroke:#343434;stroke-width:1.5;}
	.st8{fill:#FFF8F4;}
	.st9{fill:#CED0F8;stroke:#000000;stroke-width:1.52;stroke-linecap:round;}
	.st10{fill:none;stroke:#000000;stroke-width:1.52;stroke-linecap:round;}
	.st11{fill:#FCFCFC;}
	.st12{fill:none;stroke:#FAF3EF;stroke-width:3.52;stroke-linecap:round;}
	.st13{fill:none;stroke:#282828;stroke-width:1.52;stroke-linecap:round;}
	.st14{fill:#FFFFFF;stroke:#000000;stroke-width:1.52;}
	.st15{fill:none;stroke:#000000;stroke-width:1.52;}
	.st16{fill:#FCFCFC;stroke:#000000;stroke-width:1.52;stroke-linecap:round;}
	.st17{fill:none;stroke:#000000;stroke-width:1.3;stroke-linecap:round;}
	.st18{fill:none;stroke:#000000;stroke-width:1.4;stroke-linecap:round;}
	.st19{fill:#FFFFFF;stroke:#000000;stroke-width:1.52;stroke-linecap:round;}
	.st20{fill:#CED0F8;stroke:#000000;stroke-width:1.52;}
	.st21{fill:#FCFCFC;stroke:#000000;stroke-width:1.52;}
	.st22{fill:none;stroke:#FFF8F4;stroke-width:2.52;stroke-linecap:square;}
	.st23{fill-rule:evenodd;clip-rule:evenodd;fill:#FFFCF9;stroke:#1C1C1C;stroke-width:1.52;}
	.st24{fill:#FFFCF9;stroke:#000000;stroke-width:1.52;}
	.st25{fill:none;stroke:#FFF8F4;stroke-width:5;}
	.st26{fill:none;stroke:#000000;stroke-width:2;}
	.st27{fill:none;stroke:#000000;stroke-width:1.5;}
	.st28{fill:#FCFCFC;stroke:#000000;}
</style>
<path class="st0" d="M1687.9,538.2V351.6 M1687.9,351.6h-9.8V319H1853v32.6h-12.4 M1687.9,351.6h152.7 M1840.6,351.6v137.5"/>
<path class="st0" d="M1733.5,351v367"/>
<path class="st0" d="M1780.5,351v425.1"/>
<path class="st0" d="M1688,407h-118v131.2"/>
<path class="st0" d="M1688,386h-130v21h19"/>
<path class="st0" d="M1607,538.2V406"/>
<path class="st0" d="M1650.8,540.1V407.9"/>
<path class="st0" d="M112,402.5h123.5 M235.5,402.5v117 M235.5,402.5h14"/>
<path class="st0" d="M111,381h138v21"/>
<path class="st0" d="M196.4,403v77.5"/>
<path class="st0" d="M153.5,403v54"/>
<path class="st1" d="M-1,776h1800"/>
<path class="st0" d="M-9,775.7L30.8,326 M30.8,326l17.6,451l35.3-1.3L107.3,326 M30.8,326h76.5 M107.3,326L141,777"/>
<path class="st0" d="M40.8,326v-7.5h55.9v7.5"/>
<path class="st0" d="M50.2,318.4v-7.6h38v7.6"/>
<path class="st0" d="M70.3,269L84,310.8H55.4L70.3,269z"/>
<rect x="1" y="368" class="st2" width="1800" height="409"/>
<g class="st3">
	<path class="st4" d="M1278,233h44v-2h-44V233z"/>
	<path class="st4" d="M1686,57h7v-2h-7V57z"/>
	<path class="st4" d="M530,246h33v-2h-33V246z"/>
	<path class="st5" d="M316.5,272.6c2.8,0.9,8.6,4.2,9.1,9.8c0.6-4.5,5.9-8.4,8.4-9.8"/>
	<path class="st6" d="M316.5,272.6c2.8,0.9,8.6,4.2,9.1,9.8c0.6-4.5,5.9-8.4,8.4-9.8"/>
	<path class="st6" d="M287,260c2.8,0.9,8.6,4.2,9.1,9.8c0.6-4.5,5.8-8.4,8.4-9.8"/>
	<path class="st0" d="M170.5,157.4H115c0-3.7,2.1-11.6,10.5-14c7.5-2.1,13.5,2.5,15,5.5c1.5-2.7,6-9.5,16.5-7.5
		C165.9,143.1,169.3,152,170.5,157.4z"/>
	<path class="st6" d="M1547.2,281.3h-32.5c0.4-9,8.1-15.9,17-15.4C1540.1,266.2,1546.8,272.9,1547.2,281.3z"/>
	<path class="st6" d="M235.2,20.3h-32.5c0.4-9,8.1-15.9,17-15.4C228.1,5.2,234.8,11.9,235.2,20.3L235.2,20.3z"/>
	<path class="st5" d="M1719.5,169.6c2.8,0.9,8.6,4.2,9.1,9.8c0.6-4.5,5.8-8.4,8.4-9.8"/>
	<path class="st6" d="M1719.5,169.6c2.8,0.9,8.6,4.2,9.1,9.8c0.6-4.5,5.8-8.4,8.4-9.8"/>
	<path class="st6" d="M1690,157c2.8,0.9,8.6,4.2,9.1,9.8c0.6-4.5,5.8-8.4,8.4-9.8"/>
	<path class="st0" d="M1624,22.6h-67c3-24.5,27-28,40.5-11.5C1613.5,0.6,1624,13.1,1624,22.6z"/>
</g>
<path class="st7" d="M998,777c-71.3-38.2-213-125-252.8-125s-73.2,36-95.7,53.5l-39.5,30"/>
<path class="st7" d="M1140,726c-61.9-37.5-129.3-75-161.5-75c-28.7,0-70.7,30.9-100.5,57"/>
<path class="st8" d="M626.6,638.4c-18.1,9.3-12.7,25-7.8,31.7c-12.3,7.1-11,29.7-1.3,38.8c8.7,8.1,29.7,15.5,43.9,0.7
	c6.5,7.1,20.7,8.4,29.1,1.9s12.3-27.1-8.4-33c14.2-10.3,12.9-27.1,11.6-32.3s-7.8-25.2-36.2-18.7c5.2-23.9-15.5-31.7-29.1-25.2
	S611.8,628,626.6,638.4z"/>
<path class="st9" d="M628.3,638.7c-17.8,9.1-12.5,24.5-7.6,31.1c-12.1,7-10.8,29.2-1.3,38.1c8.6,8,29.2,15.2,43.2,0.6
	c6.3,7,20.3,8.3,28.6,1.9s12.1-26.7-8.3-32.4c14-10.2,12.7-26.7,11.4-31.8s-7.6-24.8-35.6-18.4c5.1-23.5-15.2-31.1-28.6-24.8
	S613.8,628.6,628.3,638.7z"/>
<path class="st10" d="M648.7,649.5c7.8,21.4,22.1,76.2,16.5,124.5"/>
<path class="st10" d="M667.1,669.2l-7,19"/>
<path class="st10" d="M641.7,659.7l12.7,8.3"/>
<path class="st11" d="M466,604l-167,1l-1,170h170L466,604z"/>
<path class="st11" d="M581,682H389.5v93.5H581V682z"/>
<path class="st12" d="M484,605H283l99-55.5L484,605z"/>
<path class="st13" d="M478.5,604H287l95.5-52.5L478.5,604z"/>
<circle class="st14" cx="383" cy="582.5" r="13.2"/>
<rect x="313.8" y="617.3" class="st15" width="59.5" height="38.5"/>
<rect x="392.8" y="617.3" class="st15" width="59.5" height="38.5"/>
<path class="st10" d="M407,618v37 M393.5,641.9h58"/>
<path class="st10" d="M359,618v36.5"/>
<path class="st10" d="M373,642h-59"/>
<path class="st10" d="M301,604.5v170"/>
<path class="st10" d="M464.5,604.5V669"/>
<path class="st16" d="M598,668.5H371v13h227V668.5z"/>
<path class="st9" d="M456,693h-47v83h47V693z"/>
<circle cx="447.5" cy="733" r="2.5"/>
<path class="st10" d="M390,681.5v94"/>
<rect x="475.8" y="693.3" class="st15" width="83.5" height="62.5"/>
<path class="st10" d="M497.5,694v61.5"/>
<path class="st10" d="M476.5,736.5h82"/>
<rect x="1399" y="655.5" class="st11" width="93" height="92"/>
<rect x="1403.8" y="668.3" class="st15" width="78.5" height="62.5"/>
<path class="st10" d="M1424.2,669v61.5"/>
<path class="st10" d="M1404.4,711.5h77.2"/>
<rect x="314.8" y="691.3" class="st15" width="58.5" height="64.5"/>
<path class="st10" d="M358.5,692.5v63"/>
<path class="st10" d="M373,738h-58"/>
<path class="st10" d="M581,681.5v61"/>
<path class="st11" d="M601,733.5c-14.3,0-25.9,11.5-26,25.8c0,5.8,1.9,11.4,5.5,16l41.5-0.6c8.5-11.5,6-27.8-5.6-36.2
	C611.9,735.3,606.5,733.5,601,733.5L601,733.5z"/>
<path class="st10" d="M580.5,775.3c-8.8-11.3-6.8-27.7,4.6-36.5c11.3-8.8,27.7-6.8,36.5,4.6c7.1,9.2,7.3,21.9,0.4,31.3"/>
<path class="st10" d="M601,745.5v30"/>
<path class="st10" d="M601,759.5l7-8"/>
<path class="st11" d="M1384.5,641.5H1165V775h227.5v-10.5h-8V641.5z"/>
<path class="st17" d="M1154,653h11.1v-11.5h218.9V653h13.9v-9.1l-44-76.9h-157.1l-42.9,76.9V653z"/>
<path class="st18" d="M1169,765.5h215v-124h-219v91"/>
<path class="st19" d="M1219,615.5V656h44v-40.5l-21.5-21.5L1219,615.5z"/>
<path class="st10" d="M1241.2,595.7v60.1 M1261.4,615.9H1220"/>
<rect x="1183.8" y="670" class="st15" width="113.5" height="82.2"/>
<path class="st10" d="M1221.1,670.2v81.3"/>
<path class="st10" d="M1259.2,670.2v81.3"/>
<path class="st10" d="M1185,697.6h111.7"/>
<path class="st10" d="M1185,725.1h111.7"/>
<path class="st10" d="M1372,669h-52v96.5h52V669z"/>
<path class="st9" d="M1331,701v-21h29v21H1331z"/>
<path class="st10" d="M1332,757v-8h29v8H1332z"/>
<circle cx="1364.3" cy="719.8" r="2.4"/>
<path class="st10" d="M1384,765.5h8.2v10.1"/>
<path class="st15" d="M1160.3,775.5c12.5-9.1,15.2-26.5,6.2-39s-26.5-15.2-39-6.2s-15.2,26.5-6.2,39c1.7,2.4,3.8,4.5,6.2,6.2"/>
<path class="st15" d="M1144.3,741.5v34.2"/>
<path class="st15" d="M1144.3,757.2l7.7-9.4"/>
<path class="st9" d="M1089.2,640.3c16.9,8.2,12.8,23.7,8.7,30.5c11.5,6.3,11.5,28.4,3.1,37.7c-7.5,8.3-26.3,16.5-40,2.7
	c-5.5,7.2-18.4,9.2-26.4,3.3s-12.6-25.9,6-32.5c-13.5-9.4-13.2-25.8-12.2-30.9s5.8-24.9,32-20c-5.9-23,12.5-31.6,25.2-25.9
	S1102.2,629.5,1089.2,640.3z"/>
<path class="st10" d="M1070.9,652c-6.2,21.6-16.5,76.6-8.9,124.2"/>
<path class="st10" d="M1054.9,672.4l7.5,18.5"/>
<path class="st10" d="M1077.9,661.7l-11.3,8.8"/>
<path class="st16" d="M1555.2,538.2V776h53.7v-88.5h61.5V776h54.6V538.2H1555.2z"/>
<circle class="st20" cx="1630" cy="486.3" r="19.5"/>
<rect x="1575.7" y="560.1" class="st21" width="54.3" height="85.1"/>
<path class="st10" d="M1629.8,584.9h-53.4"/>
<path class="st10" d="M1602.8,560.3V645"/>
<rect x="1650.8" y="560.1" class="st21" width="54.3" height="85.1"/>
<path class="st10" d="M1704.8,584.9h-53.4"/>
<path class="st10" d="M1677.9,560.3V645"/>
<path class="st22" d="M1670.4,774v-87h-61.5v87"/>
<path class="st10" d="M1669.9,687.8h-60.3V776h60.3V687.8z"/>
<circle cx="1663.5" cy="732.5" r="1.9"/>
<path class="st10" d="M1590.9,677h97.7"/>
<path class="st10" d="M1548,665.2h183.3"/>
<path class="st14" d="M1771.4,750c0-17.9-14.5-32.4-32.4-32.5c-17.9,0-32.4,14.5-32.5,32.4c0,10.3,4.9,20,13.2,26.1h38.5
	C1766.5,770,1771.4,760.3,1771.4,750z"/>
<path class="st10" d="M1739.4,735v40.7"/>
<path class="st10" d="M1739.4,753.7l10.7-13.2"/>
<path class="st10" d="M1739,767l-9.1-11.1"/>
<path class="st16" d="M242.5,513H87v263h46v-90h61v90h48.5V513z"/>
<path class="st23" d="M74,504.9h181.6v8.1H74V504.9z"/>
<rect x="178.8" y="528.3" class="st24" width="43.7" height="39.5"/>
<path class="st10" d="M222.3,548.5h-43.5"/>
<path class="st10" d="M200,529.1v37.7"/>
<rect x="178.8" y="586.8" class="st24" width="43.7" height="39.5"/>
<path class="st10" d="M222,607h-43.2"/>
<path class="st10" d="M200,587.7v37.7"/>
<rect x="109.8" y="527.8" class="st24" width="43.7" height="39.5"/>
<path class="st10" d="M153.3,548h-43.5"/>
<path class="st10" d="M132,528.7v37.7"/>
<rect x="110.8" y="586.8" class="st24" width="43.7" height="39.5"/>
<path class="st10" d="M154.3,607h-43.5"/>
<path class="st10" d="M132,587.7v37.7"/>
<path class="st10" d="M73,650h183.3"/>
<path class="st10" d="M103,668h121"/>
<circle cx="186.9" cy="732.5" r="1.9"/>
<path class="st14" d="M97.6,750c0-17.9-14.5-32.4-32.4-32.5S32.8,732.1,32.8,750c0,10.3,4.9,20,13.2,26.1h38.5
	C92.7,770,97.6,760.3,97.6,750z"/>
<path class="st15" d="M97.6,750c0-17.9-14.5-32.4-32.4-32.5S32.8,732.1,32.8,750c0,10.3,4.9,20,13.2,26.1h38.5
	C92.7,770,97.6,760.3,97.6,750z"/>
<path class="st10" d="M65.6,735v40.7"/>
<path class="st10" d="M65.6,754.7l10.7-13.2"/>
<path class="st10" d="M65.2,767.9l-9.1-11.1"/>
<path class="st25" d="M1501,625v150"/>
<path class="st26" d="M1501,625v150"/>
<path class="st11" d="M1520,596h-148.5l18,30H1520V596z"/>
<path class="st26" d="M1372.5,598H1520v26h-132.5"/>
<path class="st27" d="M879,635c2,0.7,6.1,3,6.5,7c0.4-3.2,4.2-6,6-7"/>
<path class="st27" d="M879,635c2,0.7,6.1,3,6.5,7c0.4-3.2,4.2-6,6-7"/>
<path class="st27" d="M858,626c2,0.7,6.1,3,6.5,7c0.4-3.2,4.2-6,6-7"/>
<path class="st28" d="M74,504.5l91.5-86.5l90,86.5"/>
<path class="st20" d="M141.4,482.1c-0.3-12.3,9.5-22.6,21.9-22.8c12.3-0.3,22.6,9.5,22.8,21.9c0,0.3,0,0.6,0,0.9v3.1h-44.7V482.1z"
	/>
</svg>
