<svg id="Layer_1" data-name="Layer 1" xmlns="http://www.w3.org/2000/svg" viewBox="0 0 35.93 35.84"><defs><style>.cls-1{fill:#1a2767;}.cls-2{fill:#acb0f4;}.cls-3{fill:#fff;}</style></defs><polygon class="cls-1" points="0 35.84 0 23.09 7.64 19.02 7.64 35.84 0 35.84"/><polygon class="cls-2" points="15.29 35.84 15.29 23.09 7.64 19.02 7.64 35.84 15.29 35.84"/><polygon class="cls-1" points="4.54 18.16 7.64 16.66 13.32 19.45 13.32 12.38 4.54 16.66 4.54 18.16"/><polygon class="cls-2" points="18.04 12.38 18.04 35.84 27.04 35.84 27.04 16.77 18.04 12.38"/><polygon class="cls-3" points="22 17.25 22.91 17.52 22.91 16.02 22 15.59 22 17.25"/><polygon class="cls-3" points="19.38 19.39 20.29 19.66 20.29 18.06 19.38 17.73 19.38 19.39"/><polygon class="cls-3" points="22 20.49 22.91 20.76 22.91 19.15 22 18.83 22 20.49"/><polygon class="cls-3" points="22 23.61 22.91 23.88 22.91 22.27 22 21.95 22 23.61"/><polygon class="cls-3" points="24.53 24.8 25.44 25.07 25.44 23.46 24.53 23.14 24.53 24.8"/><polygon class="cls-3" points="19.38 22.65 20.29 22.91 20.29 21.31 19.38 20.99 19.38 22.65"/><polygon class="cls-3" points="24.53 21.68 25.44 21.95 25.44 20.34 24.53 20.02 24.53 21.68"/><polygon class="cls-3" points="24.53 18.62 25.44 18.88 25.44 17.44 24.53 16.95 24.53 18.62"/><polygon class="cls-3" points="19.38 15.94 20.29 16.2 20.29 14.71 19.38 14.28 19.38 15.94"/><polygon class="cls-1" points="8.93 11.68 15.84 8.09 22.45 11.68 22.45 0 8.93 7.13 8.93 11.68"/><polygon class="cls-2" points="29.07 35.84 35.93 35.84 35.88 6.86 22.45 0 22.45 11.68 29.19 15.59 29.07 35.84"/></svg>